<svg version="1.1" id="Layer_1" xmlns="http://www.w3.org/2000/svg" xmlns:xlink="http://www.w3.org/1999/xlink" x="0px" y="0px"
	 width="17.917px" height="31.806px" viewBox="0 0 17.917 31.806" enable-background="new 0 0 17.917 31.806" xml:space="preserve">
<path fill="currentColor" d="M1.834,31.806c-0.491,0-0.917-0.181-1.278-0.542c-0.343-0.343-0.519-0.762-0.528-1.257
	c-0.009-0.496,0.162-0.919,0.514-1.271l12.833-12.833L0.542,3.07C0.181,2.709,0,2.283,0,1.792s0.181-0.917,0.542-1.278
	C0.885,0.171,1.311,0,1.82,0c0.509,0,0.93,0.167,1.264,0.5l14.431,14.431c0.148,0.148,0.252,0.301,0.312,0.458
	c0.06,0.158,0.09,0.329,0.09,0.514s-0.03,0.356-0.091,0.514c-0.06,0.157-0.164,0.31-0.312,0.458L3.084,31.292
	C2.741,31.634,2.324,31.806,1.834,31.806z"/>
</svg>
