<svg version="1.1" id="Layer_1" xmlns="http://www.w3.org/2000/svg" xmlns:xlink="http://www.w3.org/1999/xlink" x="0px" y="0px"
	 width="31.806px" height="17.917px" viewBox="0 0 31.806 17.917" enable-background="new 0 0 31.806 17.917" xml:space="preserve">
<path fill="currentColor" d="M31.806,16.083c0,0.491-0.181,0.917-0.542,1.278c-0.343,0.343-0.762,0.519-1.257,0.528
	c-0.496,0.009-0.919-0.162-1.271-0.514L15.903,4.542L3.07,17.375c-0.361,0.361-0.787,0.542-1.278,0.542s-0.917-0.181-1.278-0.542
	C0.171,17.032,0,16.606,0,16.097c0-0.509,0.167-0.93,0.5-1.264L14.931,0.402c0.148-0.148,0.301-0.252,0.458-0.312
	C15.547,0.03,15.718,0,15.903,0c0.185,0,0.356,0.03,0.514,0.091c0.157,0.06,0.31,0.164,0.458,0.312l14.417,14.43
	C31.634,15.176,31.806,15.593,31.806,16.083z"/>
</svg>
