<svg version="1.1" id="Layer_1" xmlns="http://www.w3.org/2000/svg" xmlns:xlink="http://www.w3.org/1999/xlink" x="0px" y="0px"
	 width="17.917px" height="31.806px" viewBox="0 0 17.917 31.806" enable-background="new 0 0 17.917 31.806" xml:space="preserve">
<path fill="currentColor" d="M14.833,31.292L0.403,16.875c-0.148-0.148-0.252-0.301-0.312-0.458C0.03,16.259,0,16.088,0,15.903s0.03-0.356,0.09-0.514
	c0.06-0.157,0.164-0.31,0.312-0.458L14.833,0.5C15.167,0.167,15.588,0,16.097,0c0.509,0,0.935,0.171,1.278,0.514
	c0.361,0.361,0.542,0.787,0.542,1.278s-0.181,0.917-0.542,1.278L4.542,15.903l12.833,12.833c0.352,0.352,0.523,0.775,0.514,1.271
	c-0.009,0.495-0.185,0.914-0.528,1.257c-0.361,0.361-0.787,0.542-1.278,0.542C15.593,31.806,15.176,31.634,14.833,31.292z"/>
</svg>
