<svg version="1.1" id="Layer_1" xmlns="http://www.w3.org/2000/svg" xmlns:xlink="http://www.w3.org/1999/xlink" x="0px" y="0px"
	 width="39.5px" height="35.5px" viewBox="0 0 39.5 35.5" style="enable-background:new 0 0 39.5 35.5;" xml:space="preserve">
<path fill="currentColor" d="M28.6,9.4V2.9H10.9v6.6H8.1V0h23.5v9.4H28.6z M3,12.3h33.7H3z M32.6,17c0.4,0,0.7-0.1,1-0.4c0.3-0.3,0.4-0.6,0.4-1
	c0-0.4-0.1-0.7-0.4-1c-0.3-0.3-0.6-0.4-1-0.4s-0.7,0.1-1,0.4c-0.3,0.3-0.4,0.6-0.4,1c0,0.4,0.1,0.7,0.4,1C31.9,16.8,32.2,17,32.6,17
	z M28.6,32.6V23H10.9v9.6H28.6z M31.5,35.5H8.1v-8.7h-8V14.6c0-1.4,0.5-2.7,1.5-3.7c1-1,2.2-1.5,3.7-1.5h29.1c1.4,0,2.7,0.5,3.7,1.5
	c1,1,1.5,2.2,1.5,3.7v12.2h-8V35.5z M36.6,23.9v-9.3c0-0.6-0.2-1.2-0.7-1.6c-0.4-0.4-1-0.6-1.6-0.6H5.3c-0.6,0-1.2,0.2-1.6,0.7
	c-0.4,0.4-0.7,1-0.7,1.6v9.3h5.1v-3.8h23.5v3.8H36.6z"/>
</svg>
