<svg version="1.1" id="Layer_1" xmlns="http://www.w3.org/2000/svg" xmlns:xlink="http://www.w3.org/1999/xlink" x="0px" y="0px"
	 width="26.7px" height="26.7px" viewBox="0 0 26.7 26.7" style="enable-background:new 0 0 26.7 26.7;" xml:space="preserve">
<path fill="currentColor" d="M5.9,24.5C3.7,23,2.1,21,1,18.6c-0.2-0.5-0.2-0.9,0.1-1.2c0.2-0.4,0.6-0.5,1.2-0.5c0.3,0,0.6,0.1,0.8,0.3s0.5,0.4,0.6,0.6
	c0.9,1.9,2.2,3.3,3.9,4.5c1.7,1.1,3.7,1.7,5.7,1.7c2.9,0,5.4-1,7.5-3.1s3.1-4.5,3.1-7.5s-1-5.4-3.1-7.5s-4.5-3.1-7.5-3.1
	c-2,0-3.9,0.5-5.5,1.5c-1.6,1-2.9,2.3-3.9,3.9h5.6c0.4,0,0.7,0.1,1,0.4s0.4,0.6,0.4,1s-0.1,0.7-0.4,1s-0.6,0.4-1,0.4H1.4
	c-0.4,0-0.7-0.1-1-0.4S0,10,0,9.6l0-8.2c0-0.4,0.1-0.7,0.4-1S1,0,1.4,0c0.4,0,0.7,0.1,1,0.4s0.4,0.6,0.4,1v3.7
	c1.3-1.6,2.8-2.9,4.6-3.8c1.8-0.9,3.8-1.4,6-1.4c3.7,0,6.9,1.3,9.4,3.9c2.6,2.6,3.9,5.7,3.9,9.4s-1.3,6.9-3.9,9.4
	c-2.6,2.6-5.7,3.9-9.4,3.9C10.6,26.7,8.1,25.9,5.9,24.5z"/>
</svg>
